<svg width="60" height="60" viewBox="0 0 60 60" fill="none" xmlns="http://www.w3.org/2000/svg">
<mask id="mask0_52_339" style="mask-type:alpha" maskUnits="userSpaceOnUse" x="0" y="0" width="60" height="60">
<rect width="60" height="60" fill="#D9D9D9"/>
</mask>
<g mask="url(#mask0_52_339)">
<path d="M22.5451 12.1259C20.6299 12.2162 19.3221 12.5219 18.1787 12.9712C16.9954 13.4323 15.9924 14.0512 14.9945 15.0527C13.9966 16.0542 13.3821 17.0579 12.9241 18.243C12.481 19.3889 12.1807 20.6978 12.0961 22.6141C12.0115 24.5304 11.9928 25.1464 12.0022 30.0344C12.0115 34.9225 12.0331 35.5352 12.126 37.4555C12.2175 39.3703 12.522 40.6778 12.9713 41.8216C13.4332 43.0049 14.0513 44.0075 15.0532 45.0058C16.0551 46.004 17.058 46.6171 18.246 47.0758C19.3908 47.5182 20.7001 47.8199 22.6161 47.9038C24.532 47.9876 25.1487 48.0071 30.0353 47.9977C34.9219 47.9884 35.5372 47.9668 37.4571 47.8757C39.3769 47.7846 40.6776 47.4779 41.8217 47.0308C43.005 46.5678 44.0083 45.9508 45.0059 44.9485C46.0035 43.9463 46.6176 42.9419 47.0752 41.756C47.5187 40.6112 47.82 39.3019 47.9032 37.3874C47.9871 35.4661 48.0069 34.8527 47.9975 29.9653C47.9881 25.078 47.9662 24.4652 47.8751 22.5457C47.784 20.6262 47.4791 19.3226 47.0302 18.1782C46.5676 16.9949 45.9502 15.993 44.9487 14.994C43.9471 13.995 42.942 13.3812 41.7565 12.9247C40.611 12.4816 39.3024 12.1795 37.3865 12.0967C35.4706 12.0139 34.8539 11.9927 29.9655 12.002C25.077 12.0114 24.465 12.0323 22.5451 12.1259ZM22.7554 44.6656C21.0004 44.5892 20.0475 44.2976 19.4124 44.0536C18.5715 43.7296 17.9724 43.3379 17.3395 42.7111C16.7067 42.0844 16.3179 41.4832 15.9895 40.644C15.7429 40.009 15.4459 39.0571 15.3639 37.3021C15.2746 35.4053 15.2559 34.8358 15.2454 30.0301C15.235 25.2245 15.2533 24.6557 15.3365 22.7581C15.4114 21.0046 15.7048 20.0506 15.9485 19.4159C16.2725 18.5738 16.6627 17.9759 17.2909 17.3434C17.9191 16.7108 18.5185 16.3213 19.3584 15.993C19.9927 15.7453 20.9446 15.4508 22.6989 15.3673C24.5971 15.2773 25.1659 15.2593 29.9709 15.2489C34.7758 15.2384 35.346 15.2564 37.245 15.34C38.9986 15.4163 39.9529 15.7068 40.5869 15.952C41.4282 16.276 42.0269 16.6651 42.6594 17.2944C43.2919 17.9237 43.6818 18.5209 44.0101 19.3626C44.2582 19.9951 44.5527 20.9466 44.6355 22.702C44.7258 24.6002 44.7463 25.1694 44.755 29.974C44.7636 34.7785 44.7467 35.3491 44.6635 37.246C44.5869 39.001 44.296 39.9542 44.0515 40.59C43.7275 41.4306 43.3369 42.03 42.7084 42.6622C42.0798 43.2943 41.4811 43.6838 40.6409 44.0122C40.0073 44.2595 39.0544 44.5547 37.3015 44.6382C35.4033 44.7275 34.8345 44.7462 30.0277 44.7566C25.221 44.7671 24.654 44.7476 22.7557 44.6656M37.4293 20.3796C37.4301 20.8068 37.5575 21.2243 37.7954 21.5791C38.0334 21.9339 38.3712 22.2102 38.7662 22.373C39.1612 22.5358 39.5957 22.5778 40.0145 22.4937C40.4334 22.4096 40.8179 22.2032 41.1195 21.9006C41.421 21.5979 41.6261 21.2126 41.7086 20.7934C41.7912 20.3742 41.7476 19.94 41.5833 19.5456C41.4191 19.1512 41.1416 18.8143 40.7859 18.5777C40.4302 18.341 40.0123 18.2152 39.585 18.216C39.0123 18.2172 38.4634 18.4457 38.0592 18.8515C37.6549 19.2572 37.4284 19.8069 37.4293 20.3796ZM20.7577 30.0179C20.7678 35.1227 24.9136 39.2515 30.0173 39.2418C35.121 39.2321 39.2527 35.0867 39.243 29.9819C39.2333 24.8771 35.0865 20.7472 29.982 20.7572C24.8776 20.7673 20.748 24.9138 20.7577 30.0179ZM23.9999 30.0114C23.9976 28.8247 24.3472 27.6639 25.0045 26.6759C25.6619 25.6879 26.5974 24.917 27.6929 24.4607C28.7884 24.0044 29.9946 23.8832 31.1589 24.1124C32.3233 24.3416 33.3935 24.911 34.2343 25.7484C35.0751 26.5859 35.6487 27.6539 35.8825 28.8173C36.1163 29.9808 35.9999 31.1874 35.5479 32.2847C35.096 33.382 34.3288 34.3206 33.3434 34.9818C32.358 35.6431 31.1986 35.9973 30.0119 35.9996C29.2239 36.0013 28.4434 35.8477 27.7147 35.5477C26.9861 35.2476 26.3238 34.8069 25.7655 34.2509C25.2072 33.6948 24.7639 33.0342 24.461 32.3068C24.158 31.5793 24.0014 30.7994 23.9999 30.0114Z" fill="white"/>
</g>
</svg>
